<?xml version="1.0" encoding="iso-8859-1"?>
<!-- Generator: Adobe Illustrator 16.0.0, SVG Export Plug-In . SVG Version: 6.00 Build 0)  -->
<!DOCTYPE svg PUBLIC "-//W3C//DTD SVG 1.1//EN" "http://www.w3.org/Graphics/SVG/1.1/DTD/svg11.dtd">
<svg version="1.1" id="Layer_1" xmlns="http://www.w3.org/2000/svg" xmlns:xlink="http://www.w3.org/1999/xlink" x="0px" y="0px"
	 width="30.362px" height="31.695px" viewBox="0 0 30.362 31.695" style="enable-background:new 0 0 30.362 31.695;"
	 xml:space="preserve">
<g>
	<polygon points="12.57,14.937 12.885,21.738 17.069,21.738 17.386,14.937 19.815,14.937 20.483,11.556 17.567,11.556 
		17.528,10.132 17.122,10.132 16.597,10.132 15.809,10.132 15.022,11.075 14.211,10.132 13.379,10.132 12.786,10.132 12.329,10.132 
		12.329,11.556 9.604,11.556 10.271,14.937 	"/>
	<circle cx="14.985" cy="7.68" r="2.132"/>
	<circle cx="22.869" cy="24.066" r="1.004"/>
	<path d="M27.479,25.07c0.555,0,1.003-0.449,1.003-1.004c0-0.558-0.448-1.005-1.003-1.005c-0.558,0-1.005,0.447-1.005,1.005
		C26.474,24.621,26.921,25.07,27.479,25.07z"/>
	<circle cx="17.765" cy="24.066" r="1.004"/>
	<circle cx="12.32" cy="24.066" r="1.004"/>
	<circle cx="7.065" cy="23.971" r="1.003"/>
	<path d="M1.834,24.974c0.557,0,1.006-0.448,1.006-1.003s-0.449-1.003-1.006-1.003c-0.553,0-1.001,0.448-1.001,1.003
		S1.281,24.974,1.834,24.974z"/>
	<circle cx="22.868" cy="27.207" r="1.446"/>
	<polygon points="23.426,28.869 22.895,29.509 22.342,28.869 21.067,29.112 21.067,31.653 24.671,31.653 24.614,29.131 	"/>
	<circle cx="17.629" cy="27.206" r="1.445"/>
	<polygon points="18.187,28.869 17.655,29.509 17.104,28.869 15.828,29.131 15.828,31.653 19.433,31.653 19.36,29.131 	"/>
	<circle cx="20.177" cy="25.189" r="1.058"/>
	<path d="M21.493,28.379c-0.188-0.354-0.318-0.74-0.318-1.173c0-0.283,0.074-0.546,0.162-0.8h-0.105h-0.258h-0.391l-0.389,0.468
		l-0.403-0.468h-0.413h-0.232c0.107,0.246,0.168,0.515,0.168,0.8c0,0.466-0.164,0.891-0.431,1.238h2.61V28.379z"/>
	<circle cx="12.32" cy="27.207" r="1.446"/>
	<polygon points="12.877,28.869 12.346,29.509 11.794,28.869 10.518,29.131 10.518,31.653 14.123,31.653 14.05,29.131 	"/>
	<circle cx="14.865" cy="25.189" r="1.058"/>
	<path d="M16.184,28.379c-0.188-0.354-0.32-0.74-0.32-1.173c0-0.283,0.077-0.546,0.163-0.8h-0.104h-0.259h-0.392l-0.39,0.468
		l-0.402-0.468h-0.414h-0.23c0.106,0.246,0.168,0.515,0.168,0.8c0,0.466-0.162,0.891-0.432,1.238h2.611V28.379z"/>
	<circle cx="28.169" cy="27.14" r="1.446"/>
	<polygon points="28.726,28.804 28.194,29.442 27.643,28.804 26.367,29.092 26.367,31.589 29.973,31.589 29.899,29.072 	"/>
	<circle cx="25.403" cy="25.124" r="1.057"/>
	<path d="M26.722,28.313c-0.188-0.355-0.32-0.741-0.32-1.173c0-0.283,0.076-0.546,0.162-0.802h-0.102h-0.26h-0.391l-0.389,0.469
		l-0.404-0.469h-0.414h-0.23c0.107,0.248,0.168,0.519,0.168,0.802c0,0.464-0.162,0.891-0.431,1.238h2.611L26.722,28.313z"/>
	<circle cx="7.148" cy="27.248" r="1.446"/>
	<polygon points="7.707,28.909 7.172,29.548 6.621,28.909 5.346,29.131 5.346,31.695 8.95,31.695 8.876,29.131 	"/>
	<circle cx="9.692" cy="25.23" r="1.057"/>
	<path d="M11.011,28.485l-0.001-0.064c-0.188-0.357-0.318-0.743-0.318-1.172c0-0.285,0.076-0.549,0.162-0.803H10.75h-0.258h-0.391
		l-0.391,0.469l-0.402-0.469H8.895H8.663c0.105,0.247,0.167,0.518,0.167,0.802c0,0.464-0.162,0.888-0.432,1.237H11.011z"/>
	<circle cx="1.836" cy="27.248" r="1.446"/>
	<polygon points="2.396,28.909 1.862,29.548 1.311,28.909 0,29.131 0.034,31.695 3.641,31.695 3.565,29.131 	"/>
	<circle cx="4.383" cy="25.23" r="1.057"/>
	<path d="M5.439,26.446H5.181H4.79L4.4,26.915l-0.402-0.469H3.584h-0.23c0.106,0.247,0.168,0.518,0.168,0.802
		c0,0.464-0.164,0.888-0.432,1.237h2.611l-0.002-0.064c-0.188-0.357-0.318-0.743-0.318-1.172c0-0.285,0.076-0.549,0.164-0.803H5.439
		z"/>
	<path d="M20.315,7.716l-1.2,2.096l0.519-0.078c0.033-0.008,3.48-0.541,5.848-1.243c3.103-0.92,4.881-2.446,4.881-4.189
		C30.362,1.93,27.559,0,24.111,0c-3.446,0-6.252,1.93-6.252,4.301C17.859,5.644,18.772,6.905,20.315,7.716z M24.111,0.505
		c3.169,0,5.747,1.701,5.747,3.796c0,2.135-3.162,3.302-4.521,3.706c-1.788,0.528-4.211,0.965-5.261,1.142l0.945-1.649l-0.247-0.117
		c-1.509-0.717-2.411-1.868-2.411-3.081C18.364,2.206,20.942,0.505,24.111,0.505z"/>
</g>
<g>
</g>
<g>
</g>
<g>
</g>
<g>
</g>
<g>
</g>
<g>
</g>
<g>
</g>
<g>
</g>
<g>
</g>
<g>
</g>
<g>
</g>
<g>
</g>
<g>
</g>
<g>
</g>
<g>
</g>
</svg>
