<?xml version="1.0" encoding="utf-8"?>
<!-- Generator: Adobe Illustrator 16.0.4, SVG Export Plug-In . SVG Version: 6.00 Build 0)  -->
<!DOCTYPE svg PUBLIC "-//W3C//DTD SVG 1.1//EN" "http://www.w3.org/Graphics/SVG/1.1/DTD/svg11.dtd">
<svg version="1.1" id="Layer_1" xmlns="http://www.w3.org/2000/svg" xmlns:xlink="http://www.w3.org/1999/xlink" x="0px" y="0px"
	 width="30.688px" height="31.093px" viewBox="0 0 30.688 31.093" enable-background="new 0 0 30.688 31.093" xml:space="preserve">
<path d="M25.055,25.235h-2.999v-4.276h0.478h0.614h0.87l0.844,0.981l0.818-0.981h0.819h0.547h0.422l0.001,0.061
	c-1.541,0.037-2.782,1.291-2.782,2.842C24.687,24.363,24.828,24.828,25.055,25.235z M25.184,23.861c0,1.299,1.053,2.352,2.352,2.352
	c1.298,0,2.351-1.053,2.351-2.352s-1.053-2.352-2.351-2.352C26.237,21.509,25.184,22.562,25.184,23.861z M30.556,26.563h-0.448
	h-0.579h-0.865l-0.868,1.04l-0.894-1.04H25.98H25.33h-0.506v4.53h5.863L30.556,26.563z M22.396,18.41
	c0,1.227,0.994,2.219,2.22,2.219c1.225,0,2.219-0.992,2.219-2.219c0-1.225-0.994-2.219-2.219-2.219
	C23.39,16.191,22.396,17.185,22.396,18.41z M21.985,18.335c0-1.448,1.16-2.623,2.601-2.655l-0.001-0.056H24.19h-0.512h-0.764
	l-0.767,0.918l-0.789-0.918h-0.812h-0.574h-0.446v3.999h2.804C22.117,19.238,21.985,18.806,21.985,18.335z M19.844,13.241
	c0,1.145,0.929,2.074,2.074,2.074s2.074-0.929,2.074-2.074c0-1.146-0.929-2.074-2.074-2.074S19.844,12.096,19.844,13.241z
	 M7.54,20.791H6.671l-0.844,0.981l-0.819-0.981H4.19H3.644H3.221L3.22,20.85c1.541,0.036,2.781,1.291,2.781,2.841
	c0,0.502-0.142,0.967-0.368,1.375h2.999v-4.275H8.154H7.54z M0.802,23.691c0,1.299,1.053,2.352,2.351,2.352
	c1.299,0,2.352-1.053,2.352-2.352s-1.053-2.352-2.352-2.352C1.855,21.339,0.802,22.392,0.802,23.691z M4.707,26.393h-0.92
	l-0.895,1.039l-0.868-1.039H1.158H0.579H0.132L0,30.923h5.864v-4.53H5.358H4.707z M3.854,18.24c0,1.225,0.994,2.219,2.22,2.219
	c1.225,0,2.219-0.994,2.219-2.219c0-1.227-0.994-2.22-2.219-2.22C4.848,16.02,3.854,17.013,3.854,18.24z M10.141,15.453
	L10.141,15.453l-0.812,0.001L8.54,16.373l-0.767-0.918H7.009H6.498H6.104L6.103,15.51c1.44,0.033,2.601,1.207,2.601,2.656
	c0,0.469-0.133,0.903-0.345,1.285h2.804v-3.998h-0.446H10.141z M6.695,13.071c0,1.146,0.929,2.074,2.074,2.074
	s2.074-0.929,2.074-2.074c0-1.145-0.929-2.074-2.074-2.074S6.695,11.926,6.695,13.071z M26.352,0H5.668v0.726h20.684V0z
	 M26.352,9.39H5.668v0.726h20.684V9.39z M15.954,3.295c0.867,0,1.502,1.868,1.502,2.662c0,0.629-0.371,1.196-0.931,1.434v0.315
	L16.485,7.73l0.005,0.123l-1.008,0.112V7.809c-0.037-0.027-0.064-0.077-0.064-0.163v-0.24c-0.581-0.228-0.966-0.801-0.966-1.449
	C14.451,5.163,15.085,3.295,15.954,3.295z M14.664,5.957c0,0.584,0.358,1.096,0.894,1.275l0.072,0.024V7.63
	c0.017-0.002,0.034-0.002,0.054-0.002l0.521-0.049c0.057,0,0.089-0.002,0.109-0.004V7.246l0.069-0.026
	c0.514-0.189,0.86-0.697,0.86-1.263c0-0.785-0.611-2.45-1.291-2.45C15.273,3.507,14.663,5.172,14.664,5.957z M16.49,7.938
	l-1.007,0.111v0.075c-0.009,0.04,0.003,0.092,0.012,0.12l0.013,0.043l0.931-0.104l0.046-0.015l0.002-0.046
	c0.003-0.014,0.006-0.041,0.006-0.126L16.49,7.938z M15.576,8.446c0.09,0.101,0.23,0.152,0.418,0.153H16
	c0.319,0,0.43-0.141,0.465-0.262l0.022-0.077l-0.981,0.108L15.576,8.446z M19.453,5.684V5.351h-1.356v0.333H19.453z M12.567,5.684
	h1.356V5.351h-1.356V5.684z M16.163,1.544h-0.332V2.9h0.332V1.544z M17.032,3.213L17.3,3.411l0.807-1.091L17.84,2.122L17.032,3.213z
	 M17.718,4.128l0.104,0.315l1.289-0.427l-0.104-0.315L17.718,4.128z M12.874,4.016l1.288,0.429l0.104-0.316L12.98,3.7L12.874,4.016z
	 M13.913,2.321l0.807,1.091l0.268-0.197l-0.807-1.091L13.913,2.321z M2.57,4.426c0.976,0,1.766-0.79,1.766-1.765
	c0-0.975-0.79-1.765-1.766-1.765c-0.975,0-1.765,0.79-1.765,1.765C0.805,3.636,1.595,4.426,2.57,4.426z M1.575,13.321l0.007,0.115
	h0.778v-0.728v-0.079V9.487h0.444v3.142v0.079v0.728h0.779l0.007-0.115l0.704,0.115h0.604v-0.652L4.19,12.629H4.069V9.487V9.19
	V8.789h0.112l0.163-3.182l3.153-1.044L7.224,3.739L4.346,4.692H3.212L2.54,5.473L1.888,4.692H1.236H0.802H0.465L0.367,8.13h0.605
	l0.032,0.659h0.093V9.19v0.297v3.142H0.977l-0.709,0.155v0.652h0.604L1.575,13.321z"/>
</svg>
