<?xml version="1.0" encoding="iso-8859-1"?>
<!-- Generator: Adobe Illustrator 16.0.0, SVG Export Plug-In . SVG Version: 6.00 Build 0)  -->
<!DOCTYPE svg PUBLIC "-//W3C//DTD SVG 1.1//EN" "http://www.w3.org/Graphics/SVG/1.1/DTD/svg11.dtd">
<svg version="1.1" id="Layer_1" xmlns="http://www.w3.org/2000/svg" xmlns:xlink="http://www.w3.org/1999/xlink" x="0px" y="0px"
	 width="32.286px" height="27.683px" viewBox="0 0 32.286 27.683" style="enable-background:new 0 0 32.286 27.683;"
	 xml:space="preserve">
<g>
	<path d="M31.747,0H11.412v13.617h20.335V0z M30.869,12.74H12.287V0.876h18.583V12.74z"/>
	<rect x="26.784" y="10.866" width="3.527" height="1.264"/>
	<circle cx="5.264" cy="6.481" r="1.67"/>
	<polygon points="9.68,17.051 9.68,12.382 10.533,12.382 10.533,11.015 7.331,11.015 7.262,8.654 5.909,8.402 5.293,9.14 
		4.656,8.402 3.183,8.655 3.183,11.015 0,11.015 0,12.382 0.853,12.382 0.853,17.051 	"/>
	<circle cx="25.002" cy="19.86" r="1.03"/>
	<circle cx="29.728" cy="19.86" r="1.03"/>
	<circle cx="19.77" cy="19.86" r="1.03"/>
	<circle cx="14.187" cy="19.86" r="1.029"/>
	<circle cx="8.799" cy="19.763" r="1.03"/>
	<circle cx="3.438" cy="19.763" r="1.029"/>
	<circle cx="25.002" cy="23.082" r="1.482"/>
	<polygon points="25.573,24.785 25.027,25.441 24.462,24.785 23.154,25.034 23.154,27.641 26.851,27.641 26.792,25.054 	"/>
	<circle cx="19.63" cy="23.081" r="1.482"/>
	<polygon points="20.203,24.785 19.657,25.441 19.092,24.785 17.783,25.054 17.783,27.641 21.48,27.641 21.406,25.054 	"/>
	<circle cx="22.242" cy="21.013" r="1.084"/>
	<path d="M23.592,24.283c-0.193-0.365-0.327-0.761-0.327-1.203c0-0.29,0.077-0.56,0.167-0.821h-0.107H23.06h-0.401l-0.399,0.48
		l-0.413-0.48h-0.425h-0.237c0.11,0.252,0.173,0.53,0.173,0.821c0,0.476-0.168,0.913-0.444,1.27h2.678L23.592,24.283z"/>
	<circle cx="14.187" cy="23.082" r="1.482"/>
	<polygon points="14.759,24.785 14.213,25.441 13.648,24.785 12.339,25.054 12.339,27.641 16.036,27.641 15.961,25.054 	"/>
	<circle cx="16.797" cy="21.013" r="1.084"/>
	<path d="M18.147,24.283c-0.192-0.365-0.328-0.761-0.328-1.203c0-0.29,0.079-0.56,0.167-0.821H17.88h-0.265h-0.401l-0.399,0.48
		l-0.413-0.48h-0.425h-0.237c0.11,0.252,0.172,0.53,0.172,0.821c0,0.476-0.167,0.913-0.443,1.27h2.678L18.147,24.283z"/>
	<circle cx="30.438" cy="23.013" r="1.482"/>
	<polygon points="32.211,24.994 31.009,24.717 30.463,25.373 29.898,24.717 28.589,25.014 28.589,27.573 32.286,27.573 	"/>
	<circle cx="27.602" cy="20.945" r="1.085"/>
	<path d="M28.953,24.215c-0.192-0.364-0.329-0.761-0.329-1.202c0-0.291,0.079-0.56,0.167-0.822h-0.105H28.42h-0.4l-0.398,0.48
		l-0.414-0.48h-0.424h-0.236c0.109,0.254,0.171,0.53,0.171,0.821c0,0.477-0.167,0.913-0.442,1.27h2.679L28.953,24.215z"/>
	<circle cx="8.882" cy="23.123" r="1.482"/>
	<polygon points="9.456,24.826 8.909,25.482 8.344,24.826 7.035,25.054 7.035,27.683 10.731,27.683 10.656,25.054 	"/>
	<circle cx="11.493" cy="21.055" r="1.084"/>
	<path d="M12.843,24.325c-0.191-0.365-0.327-0.761-0.327-1.201c0-0.292,0.078-0.562,0.167-0.823h-0.106h-0.265h-0.401l-0.399,0.48
		l-0.414-0.48h-0.424h-0.237c0.109,0.254,0.173,0.53,0.173,0.822c0,0.476-0.168,0.913-0.443,1.269h2.677L12.843,24.325z"/>
	<circle cx="3.438" cy="23.124" r="1.482"/>
	<polygon points="4.01,24.826 3.464,25.482 2.899,24.826 1.555,25.054 1.591,27.683 5.287,27.683 5.21,25.054 	"/>
	<circle cx="6.048" cy="21.055" r="1.084"/>
	<path d="M7.399,24.325c-0.193-0.365-0.328-0.761-0.328-1.201c0-0.292,0.079-0.562,0.167-0.823H7.132H6.867H6.466l-0.398,0.48
		l-0.414-0.48H5.229H4.994c0.108,0.254,0.172,0.53,0.172,0.822c0,0.476-0.168,0.913-0.444,1.269H7.4L7.399,24.325z"/>
</g>
<g>
</g>
<g>
</g>
<g>
</g>
<g>
</g>
<g>
</g>
<g>
</g>
<g>
</g>
<g>
</g>
<g>
</g>
<g>
</g>
<g>
</g>
<g>
</g>
<g>
</g>
<g>
</g>
<g>
</g>
</svg>
