<?xml version="1.0" encoding="iso-8859-1"?>
<!-- Generator: Adobe Illustrator 16.0.0, SVG Export Plug-In . SVG Version: 6.00 Build 0)  -->
<!DOCTYPE svg PUBLIC "-//W3C//DTD SVG 1.1//EN" "http://www.w3.org/Graphics/SVG/1.1/DTD/svg11.dtd">
<svg version="1.1" id="Layer_1" xmlns="http://www.w3.org/2000/svg" xmlns:xlink="http://www.w3.org/1999/xlink" x="0px" y="0px"
	 width="31.313px" height="30.387px" viewBox="0 0 31.313 30.387" style="enable-background:new 0 0 31.313 30.387;"
	 xml:space="preserve">
<g>
	<polygon points="2.931,0 2.931,2.953 4.221,2.555 4.221,1.29 30.023,1.29 30.023,17.738 9.491,17.738 9.424,19.027 31.313,19.027 
		31.313,0 	"/>
	<g>
		<circle cx="4.984" cy="7.063" r="3.821"/>
		<polygon points="8.227,28.641 8.227,21.839 8.227,21.198 8.227,20.328 8.47,20.328 8.825,13.422 15.416,10.008 14.55,8.338 
			8.524,11.459 6.374,11.459 4.917,13.148 3.508,11.459 0.412,12.02 0.214,18.902 1.526,18.902 1.597,20.328 1.797,20.328 
			1.797,21.198 1.797,21.839 1.797,28.641 1.534,28.641 0,28.974 0,30.387 1.306,30.387 2.83,30.137 2.844,30.387 4.531,30.387 
			4.531,28.812 4.531,28.641 4.531,21.839 5.492,21.839 5.492,28.641 5.492,28.812 5.492,30.387 7.181,30.387 7.195,30.137 
			8.718,30.387 10.024,30.387 10.024,28.974 8.491,28.641 		"/>
	</g>
	<rect x="11.039" y="5.772" width="16.523" height="0.483"/>
	<rect x="11.039" y="4.079" width="16.523" height="0.484"/>
	<rect x="11.039" y="7.424" width="16.523" height="0.484"/>
	<polygon points="27.562,8.996 15.535,8.996 15.786,9.479 27.562,9.479 	"/>
	<polygon points="14.427,11.131 27.562,11.131 27.562,10.648 15.423,10.648 	"/>
	<polygon points="11.039,12.792 11.039,12.816 27.562,12.816 27.562,12.333 11.863,12.333 	"/>
	<rect x="23.719" y="14.682" width="5.051" height="1.879"/>
</g>
<g>
</g>
<g>
</g>
<g>
</g>
<g>
</g>
<g>
</g>
<g>
</g>
<g>
</g>
<g>
</g>
<g>
</g>
<g>
</g>
<g>
</g>
<g>
</g>
<g>
</g>
<g>
</g>
<g>
</g>
</svg>
