<?xml version="1.0" encoding="iso-8859-1"?>
<!-- Generator: Adobe Illustrator 16.0.0, SVG Export Plug-In . SVG Version: 6.00 Build 0)  -->
<!DOCTYPE svg PUBLIC "-//W3C//DTD SVG 1.1//EN" "http://www.w3.org/Graphics/SVG/1.1/DTD/svg11.dtd">
<svg version="1.1" id="Layer_1" xmlns="http://www.w3.org/2000/svg" xmlns:xlink="http://www.w3.org/1999/xlink" x="0px" y="0px"
	 width="31.856px" height="30.398px" viewBox="0 0 31.856 30.398" style="enable-background:new 0 0 31.856 30.398;"
	 xml:space="preserve">
<g>
	<circle cx="24.171" cy="6.826" r="3.491"/>
	<polygon points="28.115,23.174 27.201,10.913 21.549,10.913 21.549,13.243 18.76,17.592 20.685,18.825 21.549,17.478 
		21.549,23.174 22.233,23.174 19.816,29.252 22.701,30.398 24.65,25.495 26.572,30.398 29.461,29.266 27.073,23.174 	"/>
	<polygon points="28.282,18.463 31.856,18.463 31.233,11.245 27.658,11.245 	"/>
	<circle cx="8.005" cy="3.908" r="3.908"/>
	<path d="M11.395,13.546l0.01,0.032l0.025-0.013l0.02,0.013l0.01-0.024l6.781-1.842l-0.856-2.664l-5.837,1.428L6.941,7.98
		L6.939,7.985L0.725,7.662L0.168,18.371h-0.06v1.15L0,21.607l0.108,0.006l0,0h0.004l6.016,0.313L3.145,25.31l-0.058-0.07L1.97,26.15
		l3.459,4.248l1.117-0.91l-0.794-0.976l6.083-6.899h0.078v-3.242H6.411l0.381-7.333L11.395,13.546z M6.404,21.613l-0.172,0.195
		l0.01-0.195H6.404z"/>
</g>
<g>
</g>
<g>
</g>
<g>
</g>
<g>
</g>
<g>
</g>
<g>
</g>
<g>
</g>
<g>
</g>
<g>
</g>
<g>
</g>
<g>
</g>
<g>
</g>
<g>
</g>
<g>
</g>
<g>
</g>
</svg>
