<?xml version="1.0" encoding="iso-8859-1"?>
<!-- Generator: Adobe Illustrator 16.0.0, SVG Export Plug-In . SVG Version: 6.00 Build 0)  -->
<!DOCTYPE svg PUBLIC "-//W3C//DTD SVG 1.1//EN" "http://www.w3.org/Graphics/SVG/1.1/DTD/svg11.dtd">
<svg version="1.1" id="Layer_1" xmlns="http://www.w3.org/2000/svg" xmlns:xlink="http://www.w3.org/1999/xlink" x="0px" y="0px"
	 width="29.173px" height="30.298px" viewBox="0 0 29.173 30.298" style="enable-background:new 0 0 29.173 30.298;"
	 xml:space="preserve">
<g>
	<path d="M15.407,13.651c2.065,0,3.743-1.676,3.743-3.744s-1.678-3.743-3.743-3.743c-2.064,0-3.742,1.675-3.742,3.743
		S13.343,13.651,15.407,13.651z"/>
	<polygon points="10.684,17.962 8.56,22.421 8.28,23.005 4.501,23.005 1.876,12.507 0,12.977 2.992,24.939 4.503,24.939 
		2.563,29.214 3.737,29.748 5.921,24.939 9.122,24.939 11.219,29.739 12.401,29.223 10.529,24.939 11.887,24.939 11.887,23.005 
		9.524,23.005 9.803,22.421 10.474,21.013 11.809,18.21 18.31,18.21 18.31,17.087 11.1,17.087 	"/>
	<polygon points="11.888,13.152 9.805,10.177 8.721,10.354 4.153,19.273 4.806,22.421 6.958,22.421 7.845,22.421 10.52,16.81 
		10.684,16.463 10.684,16.385 19.176,16.385 19.176,14.42 11.783,14.42 	"/>
	<polygon points="13.872,19.801 11.765,19.801 10.518,22.421 10.684,22.421 13.872,22.421 13.872,30.298 17.24,30.298 17.24,19.801 
		16.972,19.801 	"/>
	<polygon points="19.616,2.618 19.616,1.979 17.009,1.979 17.009,2.618 18.497,2.618 16.889,4.43 16.889,5.07 19.729,5.07 
		19.729,4.43 18.008,4.43 	"/>
	<polygon points="24.923,9.943 24.923,9.435 22.856,9.435 22.856,9.943 24.036,9.943 22.761,11.379 22.761,11.887 25.014,11.887 
		25.014,11.379 23.647,11.379 	"/>
	<polygon points="24.028,6.358 22.906,5.816 24.524,5.143 24.727,4.725 23.027,3.905 22.826,4.321 23.796,4.79 22.177,5.464 
		21.976,5.881 23.826,6.775 	"/>
	<polygon points="29.053,7.188 27.205,7.515 28.587,5.268 28.465,4.581 25.671,5.075 25.792,5.763 27.388,5.48 26.008,7.727 
		26.128,8.413 29.173,7.874 	"/>
	<polygon points="26.589,2.157 25.944,3.205 26.003,3.524 27.421,3.273 27.365,2.953 26.505,3.105 27.148,2.059 27.091,1.738 
		25.789,1.969 25.845,2.288 	"/>
	<polygon points="21.037,7.202 21.518,7.434 20.718,7.766 20.617,7.972 21.531,8.413 21.631,8.208 21.078,7.939 21.876,7.607 
		21.976,7.401 21.137,6.996 	"/>
	<polygon points="23.927,1.212 23.373,0.944 24.172,0.611 24.271,0.406 23.432,0 23.332,0.207 23.813,0.438 23.013,0.771 
		22.913,0.976 23.826,1.418 	"/>
	<polygon points="21.631,3.134 21.078,2.866 21.876,2.533 21.976,2.328 21.137,1.922 21.037,2.128 21.518,2.36 20.718,2.692 
		20.617,2.898 21.531,3.34 	"/>
</g>
<g>
</g>
<g>
</g>
<g>
</g>
<g>
</g>
<g>
</g>
<g>
</g>
<g>
</g>
<g>
</g>
<g>
</g>
<g>
</g>
<g>
</g>
<g>
</g>
<g>
</g>
<g>
</g>
<g>
</g>
</svg>
