<?xml version="1.0" encoding="iso-8859-1"?>
<!-- Generator: Adobe Illustrator 16.0.0, SVG Export Plug-In . SVG Version: 6.00 Build 0)  -->
<!DOCTYPE svg PUBLIC "-//W3C//DTD SVG 1.1//EN" "http://www.w3.org/Graphics/SVG/1.1/DTD/svg11.dtd">
<svg version="1.1" id="Layer_1" xmlns="http://www.w3.org/2000/svg" xmlns:xlink="http://www.w3.org/1999/xlink" x="0px" y="0px"
	 width="30.06px" height="30.254px" viewBox="0 0 30.06 30.254" style="enable-background:new 0 0 30.06 30.254;"
	 xml:space="preserve">
<g>
	<path d="M8.222,8.487c2.065,0,3.743-1.676,3.743-3.743C11.965,2.676,10.287,1,8.222,1C6.157,1,4.479,2.676,4.479,4.744
		C4.479,6.811,6.157,8.487,8.222,8.487z"/>
	<polygon points="10.685,17.918 10.685,17.918 8.559,22.377 8.559,22.377 8.281,22.961 4.501,22.961 1.876,12.463 0,12.932 
		2.991,24.895 4.504,24.895 2.563,29.17 3.737,29.704 5.919,24.895 9.122,24.895 11.22,29.695 12.4,29.179 10.529,24.895 
		11.888,24.895 11.888,22.961 9.525,22.961 11.81,18.167 18.31,18.167 18.31,17.042 11.101,17.042 	"/>
	<polygon points="5.438,9.65 4.806,22.377 6.959,22.377 7.845,22.377 10.519,16.766 10.685,16.418 11.007,12.192 15.901,7.597 
		15.901,5.461 10.679,9.693 	"/>
	<polygon points="13.872,19.757 11.766,19.757 10.518,22.377 10.685,22.377 13.872,22.377 13.872,30.254 17.241,30.254 
		17.241,19.757 16.972,19.757 	"/>
	<path d="M23.893,0c-3.404,0-6.166,1.862-6.166,4.159c0,1.408,1.039,2.649,2.627,3.402l-1.104,1.926c0,0,3.535-0.545,5.978-1.269
		c2.444-0.724,4.833-2.071,4.833-4.059C30.06,1.862,27.299,0,23.893,0z M24.619,6.61h-1.501V5.18h1.501V6.61z M25.841,3.356
		c-0.059,0.138-0.135,0.251-0.228,0.343c-0.094,0.092-0.199,0.167-0.314,0.227c-0.116,0.061-0.234,0.122-0.354,0.184
		c-0.083,0.044-0.149,0.087-0.202,0.13c-0.054,0.043-0.094,0.089-0.124,0.138c-0.028,0.048-0.048,0.104-0.062,0.166
		c-0.011,0.063-0.018,0.135-0.018,0.217h-1.336c-0.004-0.072-0.007-0.164-0.007-0.274c0-0.115,0.015-0.234,0.044-0.354
		c0.029-0.12,0.079-0.238,0.151-0.354c0.071-0.115,0.178-0.212,0.316-0.289c0.059-0.029,0.126-0.06,0.203-0.094
		c0.077-0.033,0.15-0.071,0.22-0.111c0.069-0.042,0.129-0.091,0.178-0.149c0.048-0.057,0.072-0.127,0.072-0.209
		c0-0.246-0.141-0.368-0.419-0.368c-0.174,0-0.296,0.062-0.369,0.188c-0.071,0.125-0.101,0.268-0.087,0.426h-1.509
		c0.015-0.227,0.06-0.449,0.138-0.668c0.077-0.219,0.194-0.416,0.354-0.589c0.159-0.173,0.362-0.314,0.609-0.423
		c0.248-0.108,0.551-0.163,0.907-0.163c0.352,0,0.646,0.047,0.89,0.142c0.239,0.094,0.435,0.214,0.585,0.36
		c0.148,0.148,0.258,0.309,0.327,0.484c0.069,0.176,0.11,0.344,0.12,0.502C25.928,3.039,25.899,3.219,25.841,3.356z"/>
</g>
<g>
</g>
<g>
</g>
<g>
</g>
<g>
</g>
<g>
</g>
<g>
</g>
<g>
</g>
<g>
</g>
<g>
</g>
<g>
</g>
<g>
</g>
<g>
</g>
<g>
</g>
<g>
</g>
<g>
</g>
</svg>
