<?xml version="1.0" encoding="iso-8859-1"?>
<!-- Generator: Adobe Illustrator 16.0.0, SVG Export Plug-In . SVG Version: 6.00 Build 0)  -->
<!DOCTYPE svg PUBLIC "-//W3C//DTD SVG 1.1//EN" "http://www.w3.org/Graphics/SVG/1.1/DTD/svg11.dtd">
<svg version="1.1" id="Layer_1" xmlns="http://www.w3.org/2000/svg" xmlns:xlink="http://www.w3.org/1999/xlink" x="0px" y="0px"
	 width="31.938px" height="34.061px" viewBox="0 0 31.938 34.061" style="enable-background:new 0 0 31.938 34.061;"
	 xml:space="preserve">
<path style="fill:#070909;" d="M31.369,18.821v-0.783h-0.758l-0.112-1.991l-0.226,0.088c-0.67,0.262-1.332,0.39-2.022,0.39
	c-0.02,0-0.037-0.003-0.056-0.004l-0.044-0.469c-0.009,0.001-0.621-5.379-0.621-5.379c0.095-0.7,0.22-1.766,0.268-2.86
	C27.877,5.941,28.158,0,22.769,0c-5.39,0-5.241,4.961-5.241,4.961l0.393,6.435l-0.513,5.101c-0.142,0.012-0.28,0.028-0.428,0.028
	c-0.691,0-1.352-0.128-2.023-0.39l-0.225-0.088l-0.111,1.991h-0.787v0.783H12.11v-1.422H10.5v-0.786H8.393v0.786h-6.62
	C1.497,14.193,1.075,6.56,3.086,4.643c1.101-1.052,2.475-1.421,3.771-1.01c1.094,0.346,1.957,1.187,2.289,2.192L8.222,5.914
	L8.36,7.345L6.93,7.483l-0.802,4.429l2.807-0.271c0.16,0.505,0.636,0.859,1.186,0.805c0.549-0.053,0.949-0.49,1.009-1.018
	l2.703-0.263l-1.639-4.193l-1.24,0.122l-0.139-1.432L9.764,5.765c-0.36-1.248-1.395-2.299-2.722-2.717
	c-1.515-0.478-3.111-0.06-4.38,1.15c-2.208,2.107-1.796,9.883-1.508,13.201H0v1.422v0.046v1.753h1.413v13.44h2.616V20.62h23.09
	v13.44h2.616V20.62h2.203v-1.799H31.369z M19.973,15.612c-0.232,0.075-0.478,0.15-0.731,0.222l0.291-2.251
	c0.225,0.759,0.44,1.483,0.593,1.981C20.074,15.581,20.025,15.596,19.973,15.612z M30.176,16.544l0.074,1.317h-7.456
	c0.021-0.469,0.162-1.749,1.097-1.861c0.416-0.052,0.94,0.121,1.564,0.322c0.762,0.246,1.711,0.553,2.796,0.553
	C28.909,16.875,29.541,16.767,30.176,16.544z M25.52,15.69c0.084-0.543,0.241-1.531,0.419-2.562l0.384,2.789
	C26.042,15.851,25.775,15.771,25.52,15.69z M18.608,4.346c1.171-0.08,5.215-0.447,5.319-1.756c0.385,0.71,2.427,2.5,3.236,2.618
	c-0.183,1.79-1.465,3.253-3.158,3.709v1.499h0.008l0.543,0.258l-1.707,3.076l-1.671-3.171l0.426-0.106v-1.6
	c-1.748-0.545-3.018-2.177-3.018-4.105C18.586,4.625,18.593,4.484,18.608,4.346z M15.055,16.544
	c0.635,0.223,1.267,0.331,1.924,0.331c1.085,0,2.034-0.307,2.795-0.553c0.625-0.201,1.149-0.374,1.565-0.322
	c0.932,0.112,1.076,1.393,1.097,1.861h-7.455L15.055,16.544z"/>
<g>
</g>
<g>
</g>
<g>
</g>
<g>
</g>
<g>
</g>
<g>
</g>
<g>
</g>
<g>
</g>
<g>
</g>
<g>
</g>
<g>
</g>
<g>
</g>
<g>
</g>
<g>
</g>
<g>
</g>
</svg>
